<svg width="83" height="35" viewBox="0 0 83 35" fill="none" xmlns="http://www.w3.org/2000/svg">
<path d="M11.12 11.32C11.12 12.4293 10.88 13.416 10.4 14.28C9.93067 15.1333 9.248 15.8 8.352 16.28C7.46667 16.76 6.42133 17 5.216 17H0.944V5.688H5.216C6.432 5.688 7.48267 5.92267 8.368 6.392C9.25333 6.86133 9.93067 7.52267 10.4 8.376C10.88 9.22933 11.12 10.2107 11.12 11.32ZM4.976 14.552C6.04267 14.552 6.86933 14.2693 7.456 13.704C8.05333 13.1387 8.352 12.344 8.352 11.32C8.352 10.296 8.05333 9.50133 7.456 8.936C6.86933 8.37067 6.04267 8.088 4.976 8.088H3.68V14.552H4.976ZM19.6864 14.936H15.4464L14.7424 17H11.8624L16.0064 5.768H19.1584L23.3024 17H20.3904L19.6864 14.936ZM18.9824 12.856L17.5744 8.696L16.1504 12.856H18.9824ZM26.4779 5.688L29.2459 14.2L32.0139 5.688H34.9419L31.0059 17H27.4699L23.5499 5.688H26.4779ZM38.7269 7.864V10.232H42.5509V12.296H38.7269V14.808H43.0309V17H35.9909V5.688H43.0309V7.864H38.7269ZM10.72 21.688V33H7.968V28.28H3.68V33H0.944V21.688H3.68V26.072H7.968V21.688H10.72ZM15.3363 23.864V26.232H19.1603V28.296H15.3363V30.808H19.6403V33H12.6003V21.688H19.6403V23.864H15.3363ZM31.242 33H28.506L23.93 26.056V33H21.194V21.688H23.93L28.506 28.696V21.688H31.242V33ZM43.3075 27.32C43.3075 28.4293 43.0675 29.416 42.5875 30.28C42.1182 31.1333 41.4355 31.8 40.5395 32.28C39.6542 32.76 38.6088 33 37.4035 33H33.1315V21.688H37.4035C38.6195 21.688 39.6702 21.9227 40.5555 22.392C41.4408 22.8613 42.1182 23.5227 42.5875 24.376C43.0675 25.2293 43.3075 26.2107 43.3075 27.32ZM37.1635 30.552C38.2302 30.552 39.0568 30.2693 39.6435 29.704C40.2408 29.1387 40.5395 28.344 40.5395 27.32C40.5395 26.296 40.2408 25.5013 39.6435 24.936C39.0568 24.3707 38.2302 24.088 37.1635 24.088H35.8675V30.552H37.1635ZM50.6739 33L48.2259 28.728H47.6019V33H44.8659V21.688H49.5379C50.4339 21.688 51.1912 21.8427 51.8099 22.152C52.4285 22.4613 52.8925 22.888 53.2019 23.432C53.5112 23.9653 53.6659 24.5787 53.6659 25.272C53.6659 26.0933 53.4365 26.792 52.9779 27.368C52.5299 27.944 51.8739 28.3387 51.0099 28.552L53.6979 33H50.6739ZM47.6019 26.856H49.2979C49.8419 26.856 50.2419 26.7387 50.4979 26.504C50.7539 26.2587 50.8819 25.9013 50.8819 25.432C50.8819 24.984 50.7485 24.632 50.4819 24.376C50.2259 24.12 49.8312 23.992 49.2979 23.992H47.6019V26.856ZM57.7738 21.688V33H55.0378V21.688H57.7738ZM64.8308 21.576C66.2708 21.576 67.4601 21.9547 68.3988 22.712C69.3481 23.4693 69.9614 24.4933 70.2388 25.784H67.3428C67.1294 25.2613 66.7988 24.8507 66.3508 24.552C65.9134 24.2533 65.3908 24.104 64.7828 24.104C63.9828 24.104 63.3374 24.3973 62.8468 24.984C62.3561 25.5707 62.1108 26.3547 62.1108 27.336C62.1108 28.3173 62.3561 29.1013 62.8468 29.688C63.3374 30.264 63.9828 30.552 64.7828 30.552C65.3908 30.552 65.9134 30.4027 66.3508 30.104C66.7988 29.8053 67.1294 29.4 67.3428 28.888H70.2388C69.9614 30.168 69.3481 31.192 68.3988 31.96C67.4601 32.7173 66.2708 33.096 64.8308 33.096C63.7321 33.096 62.7668 32.856 61.9348 32.376C61.1028 31.8853 60.4574 31.2027 59.9988 30.328C59.5508 29.4533 59.3268 28.456 59.3268 27.336C59.3268 26.216 59.5508 25.2187 59.9988 24.344C60.4574 23.4693 61.1028 22.792 61.9348 22.312C62.7668 21.8213 63.7321 21.576 64.8308 21.576ZM77.1001 27.224L81.6601 33H78.3481L74.5081 27.928V33H71.7721V21.688H74.5081V26.664L78.3801 21.688H81.6601L77.1001 27.224Z" fill="white"/>
<path d="M61.4396 5.68958C62.2094 5.68958 62.6905 6.52292 62.3056 7.18958L57.2141 16.0083C56.8292 16.675 55.867 16.675 55.4821 16.0083L50.3905 7.18958C50.0056 6.52292 50.4868 5.68958 51.2566 5.68958L61.4396 5.68958Z" fill="#0099FF"/>
</svg>
